<mxfile host="Electron" modified="2023-05-28T09:39:46.300Z" agent="Mozilla/5.0 (Windows NT 10.0; Win64; x64) AppleWebKit/537.36 (KHTML, like Gecko) draw.io/21.2.8 Chrome/112.0.5615.165 Electron/24.2.0 Safari/537.36" etag="qrFymYKkEIUCoLGWWran" version="21.2.8" type="device">
  <diagram name="Page-1" id="VdE_z2D5BlGm_4gGkm4Y">
    <mxGraphModel dx="724" dy="461" grid="1" gridSize="10" guides="1" tooltips="1" connect="1" arrows="1" fold="1" page="1" pageScale="1" pageWidth="827" pageHeight="1169" math="0" shadow="0">
      <root>
        <mxCell id="0" />
        <mxCell id="1" parent="0" />
        <mxCell id="GSVOPRxeOa56XYtrhsyo-8" style="edgeStyle=orthogonalEdgeStyle;rounded=0;orthogonalLoop=1;jettySize=auto;html=1;entryX=0.5;entryY=0;entryDx=0;entryDy=0;" edge="1" parent="1" source="GSVOPRxeOa56XYtrhsyo-1" target="GSVOPRxeOa56XYtrhsyo-2">
          <mxGeometry relative="1" as="geometry" />
        </mxCell>
        <mxCell id="GSVOPRxeOa56XYtrhsyo-1" value="&lt;font style=&quot;font-size: 14px;&quot;&gt;第 1 步&lt;br&gt;定义问题&lt;br&gt;&lt;/font&gt;" style="rounded=0;whiteSpace=wrap;html=1;fillColor=none;" vertex="1" parent="1">
          <mxGeometry x="120" y="80" width="120" height="60" as="geometry" />
        </mxCell>
        <mxCell id="GSVOPRxeOa56XYtrhsyo-9" style="edgeStyle=orthogonalEdgeStyle;rounded=0;orthogonalLoop=1;jettySize=auto;html=1;entryX=0.5;entryY=0;entryDx=0;entryDy=0;" edge="1" parent="1" source="GSVOPRxeOa56XYtrhsyo-2" target="GSVOPRxeOa56XYtrhsyo-3">
          <mxGeometry relative="1" as="geometry" />
        </mxCell>
        <mxCell id="GSVOPRxeOa56XYtrhsyo-2" value="&lt;font style=&quot;font-size: 14px;&quot;&gt;第 2 步&lt;br&gt;设计解决方案&lt;br&gt;&lt;/font&gt;" style="rounded=0;whiteSpace=wrap;html=1;fillColor=none;" vertex="1" parent="1">
          <mxGeometry x="120" y="180" width="120" height="60" as="geometry" />
        </mxCell>
        <mxCell id="GSVOPRxeOa56XYtrhsyo-10" style="edgeStyle=orthogonalEdgeStyle;rounded=0;orthogonalLoop=1;jettySize=auto;html=1;entryX=0.5;entryY=0;entryDx=0;entryDy=0;" edge="1" parent="1" source="GSVOPRxeOa56XYtrhsyo-3" target="GSVOPRxeOa56XYtrhsyo-4">
          <mxGeometry relative="1" as="geometry" />
        </mxCell>
        <mxCell id="GSVOPRxeOa56XYtrhsyo-3" value="&lt;font style=&quot;font-size: 14px;&quot;&gt;第 3 步&lt;br&gt;编写程序&lt;br&gt;实现解决方案&lt;br&gt;&lt;/font&gt;" style="rounded=0;whiteSpace=wrap;html=1;fillColor=none;" vertex="1" parent="1">
          <mxGeometry x="120" y="280" width="120" height="60" as="geometry" />
        </mxCell>
        <mxCell id="GSVOPRxeOa56XYtrhsyo-11" value="" style="edgeStyle=orthogonalEdgeStyle;rounded=0;orthogonalLoop=1;jettySize=auto;html=1;" edge="1" parent="1" source="GSVOPRxeOa56XYtrhsyo-4" target="GSVOPRxeOa56XYtrhsyo-5">
          <mxGeometry relative="1" as="geometry" />
        </mxCell>
        <mxCell id="GSVOPRxeOa56XYtrhsyo-4" value="&lt;font style=&quot;font-size: 14px;&quot;&gt;第 4 步&lt;br&gt;编译程序&lt;br&gt;&lt;/font&gt;" style="rounded=0;whiteSpace=wrap;html=1;fillColor=none;" vertex="1" parent="1">
          <mxGeometry x="120" y="380" width="120" height="60" as="geometry" />
        </mxCell>
        <mxCell id="GSVOPRxeOa56XYtrhsyo-12" value="" style="edgeStyle=orthogonalEdgeStyle;rounded=0;orthogonalLoop=1;jettySize=auto;html=1;" edge="1" parent="1" source="GSVOPRxeOa56XYtrhsyo-5" target="GSVOPRxeOa56XYtrhsyo-6">
          <mxGeometry relative="1" as="geometry" />
        </mxCell>
        <mxCell id="GSVOPRxeOa56XYtrhsyo-5" value="&lt;font style=&quot;font-size: 14px;&quot;&gt;第 5 步&lt;br&gt;链接目标文件&lt;br&gt;&lt;/font&gt;" style="rounded=0;whiteSpace=wrap;html=1;fillColor=none;" vertex="1" parent="1">
          <mxGeometry x="120" y="480" width="120" height="60" as="geometry" />
        </mxCell>
        <mxCell id="GSVOPRxeOa56XYtrhsyo-13" style="edgeStyle=orthogonalEdgeStyle;rounded=0;orthogonalLoop=1;jettySize=auto;html=1;entryX=0.5;entryY=1;entryDx=0;entryDy=0;" edge="1" parent="1" source="GSVOPRxeOa56XYtrhsyo-6" target="GSVOPRxeOa56XYtrhsyo-7">
          <mxGeometry relative="1" as="geometry" />
        </mxCell>
        <mxCell id="GSVOPRxeOa56XYtrhsyo-6" value="&lt;font style=&quot;font-size: 14px;&quot;&gt;第 6 步&lt;br&gt;测试程序&lt;br&gt;&lt;/font&gt;" style="rounded=0;whiteSpace=wrap;html=1;fillColor=none;" vertex="1" parent="1">
          <mxGeometry x="120" y="580" width="120" height="60" as="geometry" />
        </mxCell>
        <mxCell id="GSVOPRxeOa56XYtrhsyo-14" style="edgeStyle=orthogonalEdgeStyle;rounded=0;orthogonalLoop=1;jettySize=auto;html=1;entryX=1;entryY=0.5;entryDx=0;entryDy=0;exitX=0.5;exitY=0;exitDx=0;exitDy=0;" edge="1" parent="1" source="GSVOPRxeOa56XYtrhsyo-7" target="GSVOPRxeOa56XYtrhsyo-4">
          <mxGeometry relative="1" as="geometry">
            <mxPoint x="380" y="460" as="targetPoint" />
          </mxGeometry>
        </mxCell>
        <mxCell id="GSVOPRxeOa56XYtrhsyo-7" value="&lt;font style=&quot;font-size: 14px;&quot;&gt;第 7 步&lt;br&gt;调试 debug&lt;br&gt;&lt;/font&gt;" style="rounded=0;whiteSpace=wrap;html=1;fillColor=none;" vertex="1" parent="1">
          <mxGeometry x="280" y="480" width="120" height="60" as="geometry" />
        </mxCell>
      </root>
    </mxGraphModel>
  </diagram>
</mxfile>
